<?xml version="1.0" encoding="UTF-8"?>
<svg id="Layer_2" data-name="Layer 2" xmlns="http://www.w3.org/2000/svg" viewBox="0 0 416.73 401.06">
  <defs>
    <style>
      .cls-1 {
        fill: #6e6200;
      }

      .cls-2 {
        fill: #ad7900;
      }

      .cls-3 {
        fill: #c5720a;
      }

      .cls-4 {
        fill: #7d0715;
      }

      .cls-5 {
        fill: #eca835;
      }

      .cls-6 {
        fill: #c9520b;
      }

      .cls-7 {
        fill: #f4f5dd;
      }

      .cls-8 {
        fill: #cc550b;
      }

      .cls-9 {
        fill: #7b0c19;
      }

      .cls-10 {
        fill: #936900;
      }

      .cls-11 {
        fill: #fefdea;
      }

      .cls-12 {
        fill: #fbdf90;
      }

      .cls-13 {
        fill: #fef9e5;
      }

      .cls-14 {
        fill: #c75305;
      }

      .cls-15 {
        fill: #f12334;
      }

      .cls-16 {
        fill: #edb745;
      }

      .cls-17 {
        fill: #dd933b;
      }

      .cls-18 {
        fill: #fde486;
      }

      .cls-19 {
        fill: #d35811;
      }

      .cls-20 {
        fill: #c75707;
      }

      .cls-21 {
        fill: #b24f11;
      }

      .cls-22 {
        fill: #565400;
      }

      .cls-23 {
        fill: #fdf6af;
      }

      .cls-24 {
        fill: #c77c03;
      }

      .cls-25 {
        fill: #fcc600;
      }

      .cls-26 {
        fill: #db9937;
      }

      .cls-27 {
        fill: #ed3541;
      }

      .cls-28 {
        fill: #eb9c02;
      }

      .cls-29 {
        fill: #eaa303;
      }

      .cls-30 {
        fill: #fcd86a;
      }

      .cls-31 {
        fill: #fff9e7;
      }

      .cls-32 {
        fill: #9e0f20;
      }

      .cls-33 {
        fill: #feeb9e;
      }

      .cls-34 {
        fill: #da291c;
        font-family: Gotham-Black, Gotham;
        font-size: 72px;
        font-weight: 800;
      }

      .cls-35 {
        fill: #c9540a;
      }

      .cls-36 {
        fill: #3a1e20;
      }

      .cls-37 {
        fill: #530d17;
      }

      .cls-38 {
        fill: #fefbe9;
      }

      .cls-39 {
        fill: #b15704;
      }
    </style>
  </defs>
  <g id="Layer_1-2" data-name="Layer 1">
    <g id="Generative_Object" data-name="Generative Object">
      <path class="cls-36" d="M391.36,180.1c4.75,10.77,2.6,22.87-5.55,31.16-3.61,3.67-7.71,6.5-12.44,7.47l-10.75,2.2-4.03.35-20.73.19-188.19.16-56.46-.02-24.92-.04-18.31-.09-8.93-1.15c-.16-.84-.75-.84-1.51-1.11-13.03-4.67-21.32-17.12-20.67-31,19.41-4.11,39.4-5.84,59.26-7.64l7.8,7.85c6.29,6.34,15.9,6.98,23.76,2.3,1.4.19,2.73-.06,3.93-.28,7.52-1.34,14.58,2.44,18.64,8.6,3.18,4.82,8.06,6.85,13.06,8.15,5.63,1.46,11.75,1.12,17.35-2.03,13.46-7.55,27.19-13.4,42.07-17.59,9.47-2.67,18.6-5.05,27.62-8.96l11.27,3.76c20.73,6.91,28.78-6.21,45.87-12.48l20.13,2.55,14.55,1.08c22.5.11,44.5,1.93,66.41,6.16-.18,1,.86.98.79.41Z"/>
      <path class="cls-21" d="M263,140.29l-5.6-.23-55.57.31c-2.18.01-4.5-.18-6.08.76-.89-1.12-2.12-.75-3.61-.75l-60.2-.08-25.9-.05c-8.25-.02-16.27-.54-24.56.14-1.13.09-3.52-.03-4.66-.08-6.72-.33-13.16-.18-19.99-.23l-17.77-.14c-19.94-7.65-17.08-31.4-9.1-50.27,7.13-16.87,18.72-31.04,32.32-42.71,26.23,27.09,57.6,50.42,92.38,65.26,24.97,10.66,51.04,17.71,77.95,22.29l21.38,3.64c2.5.43,4.81,1.55,7.63,1.03.51-.09,1.12.09,1.31.39.14.22.12.52.08.73Z"/>
      <path class="cls-19" d="M182,271.47l27.42.1.21,42.06-100.52-.05c-28.92-.01-56.56-10.03-72.9-34.07-3.79-5.57-8.68-14.57-5.94-18.67,6.41,7.02,15.75,10.68,25.67,10.67l126.06-.06Z"/>
      <path class="cls-17" d="M209.62,313.64l-.21-42.06,24.17-.59,16.42,10.36,14.21,9.29c1.36.89,3.41-.92,4.47-2.02l16.19-16.97,79.28-.16c9.8-.02,18.53-4.05,25.03-10.84.49,3.18-.36,6.17-1.77,9.3-12.9,28.63-43.38,43.51-74.39,43.55l-103.39.14Z"/>
      <path class="cls-32" d="M41.05,220.32l8.93,1.15,18.31.09-.32,5.64c-.1,1.54.71,2.86,1.48,3.61,1.19,1.15,2.7,1.26,4.59,1.09,18.78-1.77,37.27-2.03,55.6-.22-.15.9.6,1.36,1.62.99,1.65,2.93.06,4.18,1.43,5.2.62.47.23,4.28,3.12,5.78.43.22.62.92.79,1.17.27.4-.09,1.12-.49,1.02-.47-.12-1.06-.46-1.74.27.95.35,2.16.97,3.71.55,7.44,6.35,15.71,11.87,25.12,15.67l17.25,6.97,1.76.45c.66.17.07.94-.22,1.73l-126.06.06c-9.92,0-19.26-3.65-25.67-10.67s-8.8-17.4-5.48-26.5c2.66-7.29,8.9-13.03,16.27-14.04Z"/>
      <path class="cls-16" d="M415.15,174.1c-16.19-1.15-38.33-6.92-53.98-7.01l-70.71-.39-1.49.16c-.04-.29.3-.66.53-1-.03-7.77-1.96-15.12-6.02-21.72-.64-1.46-.92-2.7-.42-3.83l96.13.08c.57-1.01,1.36-1.57,2.03-1.82-.22.21,0,.83.25.9l1.19.36c5.21.01,9.43,2.94,10.34,8.21.63,3.63.44,7.41-.47,11.08,8.29,4.8,16.12,9.02,22.62,14.99Z"/>
      <path class="cls-15" d="M39.05,139.94l17.77.14c6.83.05,13.27-.1,19.99.23,1.13.06,3.52.18,4.66.08,8.29-.68,16.32-.15,24.56-.14l25.9.05,60.2.08c1.5,0,2.72-.37,3.61.75-6.61,3.92-7.34,11.92-4.01,18.47-7.46,2.92-14.95,4.11-22.59,5.39-4,.67-6.46-.03-6.58.99l-19.88.41-39.34.22c-.06-.23-.61-.62-.6-1.2.23-8.28,1.26-15.86,2.33-24.36l-47.56.46c-4.11.04-9.11.68-11.63,3.98-2.96,3.88-2.39,9.16-3.72,13.69-.36,1.23-1.4,1.73-.75,3.58.25.69.09,2.13-.76,2.43-1.14.41-3.8-1.39-4.45.91-2.21-.17-4.34-1.55-6.02-3.03-4.74-4.17-4.81-16.53-.03-20.69,2.45-2.13,5.7-2.44,8.9-2.42Z"/>
      <path class="cls-9" d="M373.36,218.73c-.92.16-.37,1.21.16.67,7.85.26,14.79,4.75,18.46,10.58,4.32,6.85,4.59,14.79,2.06,21.85-1.17.33-3.17-.81-4.7.02-7.43,4.46-15.15,7.69-24.04,8.43-11.35.94-38.06,2.35-41.19-4.15-.8-1.65.09-4.6,1.66-6.12,8.17-7.93,17.64-14.19,27.03-20.79l7.35-5.84c.84-.67,2.31-1.28,2.46-2.44l10.75-2.2Z"/>
      <path class="cls-4" d="M362.62,220.93c-.15,1.15-1.62,1.77-2.46,2.44l-7.35,5.84c-9.4,6.6-18.86,12.86-27.03,20.79-1.57,1.52-2.46,4.47-1.66,6.12,3.14,6.5,29.84,5.1,41.19,4.15,8.9-.74,16.62-3.97,24.04-8.43,1.53-.84,3.53.3,4.7-.02-1.1,3.07-2.61,6.47-4.87,8.83-6.5,6.79-15.23,10.82-25.03,10.84l-79.28.16c15.27-16.01,54.32-48.66,73.72-50.36l4.03-.35Z"/>
      <path class="cls-24" d="M415.15,174.1c1.56,1.43,1.78,3.78,1.45,5.9-.22,1.41-1.76,4.04-3.81,3.7l-21.43-3.59c.07.57-.97.6-.79-.41-21.91-4.23-43.91-6.05-66.41-6.16l-14.55-1.08-20.13-2.55c.7-1.25,1.13-1.97.97-3.21l70.71.39c15.65.09,37.79,5.86,53.98,7.01Z"/>
      <path class="cls-29" d="M70.03,172.33l8.1,8.24c-19.86,1.8-39.85,3.53-59.26,7.64l-14.25,3.02c-1.26.27-3.04-.73-3.56-1.74-1.36-2.61-1.45-5.73.03-7.83,22.78-4.64,45.83-7.96,68.96-9.33Z"/>
      <path class="cls-25" d="M30.19,163.05c1.68,1.48,3.81,2.86,6.02,3.03l6.17.49h21.09s6.57,5.76,6.57,5.76c-23.13,1.37-46.17,4.69-68.96,9.33,4.17-5.92,20.63-14.52,29.11-18.61Z"/>
      <path class="cls-26" d="M263,140.29h20.06c-.5,1.14-.22,2.38.42,3.84,4.06,6.6,5.99,13.95,6.02,21.72-.23.35-.56.71-.53,1l-81.6-.33c-3.67.25-6.61-.64-9.5-1.11-2.13-1.74-4.96-3.53-6.12-5.82-3.33-6.55-2.6-14.55,4.01-18.47,1.59-.94,3.9-.75,6.08-.76l55.57-.31,5.6.23Z"/>
      <path class="cls-30" d="M337.86,221.47c.13,1.31-2.59.37-3.49.84-11.02,5.7-20.34,13.24-29.81,21.1-13.93,11.58-26.22,24.29-38.69,37.71l-19.48-12.66c-14.82-9.63-29.38-18.26-45.26-26.22-18.65-9.34-37.76-15.84-58.41-19.38-.83-.14-2.07-.38-2.69-.38l-45.43-.12c-.78.18-1.39.01-1.39-.77l56.46.02,188.19-.16Z"/>
      <path class="cls-1" d="M103.35,166.6l39.34-.22-.44,8.28,52.61-3.86c6.63-.49,12.76-.42,19.1,1,1.16.26,1.79.85,1.74,1.95l-6.11,1.49c-3.44.84-6.13,2.72-8.24,5.44-3.3,4.25-10.8-1.03-24.01,7.71l-18.16,12.02c-3.29,2.17-6.38,4.43-10.36,5.45-1.24.32-3-.14-3.5,1.34-5-1.3-9.88-3.33-13.06-8.15-4.06-6.16-11.12-9.95-18.64-8.6-1.19.21-2.52.47-3.93.28-7.86,4.68-17.47,4.04-23.76-2.3l-7.8-7.85-8.1-8.24-6.57-5.75,39.89.03Z"/>
      <path class="cls-5" d="M358.59,221.28c-19.4,1.7-58.45,34.36-73.72,50.36l-16.19,16.97c-1.05,1.1-3.1,2.91-4.47,2.02l-14.21-9.29-16.42-10.36c-15.71-9.91-32.07-18.62-49.69-25.76-17.7-7.17-35.63-11.71-54.26-13.55-18.33-1.81-36.83-1.55-55.6.22-1.89.18-3.39.07-4.59-1.09-.77-.75-1.58-2.07-1.48-3.61l.32-5.64,24.92.04c0,.78.6.95,1.39.77l45.43.12c.62,0,1.86.24,2.69.38,20.65,3.53,39.77,10.04,58.41,19.38,15.88,7.95,30.44,16.58,45.26,26.22l19.48,12.66c12.46-13.42,24.75-26.13,38.69-37.71,9.47-7.87,18.79-15.41,29.81-21.1.9-.47,3.62.47,3.49-.84l20.73-.19Z"/>
      <path class="cls-10" d="M288.97,166.86l1.49-.16c.16,1.23-.27,1.95-.97,3.21-17.09,6.27-25.14,19.39-45.87,12.48l-11.27-3.76c-2.74-.91-5.15-2.55-8.34-3.33-2.76-.68-5.56-2.22-8.31-1.55.05-1.1-.57-1.68-1.74-1.95-6.34-1.42-12.47-1.48-19.1-1l-52.61,3.86.44-8.28,19.88-.41,6.98.23,28.32-.79c2.89.47,5.83,1.35,9.5,1.11l81.6.33Z"/>
      <path class="cls-22" d="M232.35,178.62c-9.02,3.91-18.14,6.29-27.62,8.96-14.87,4.19-28.61,10.04-42.07,17.59-5.6,3.14-11.73,3.49-17.35,2.03.5-1.48,2.26-1.03,3.5-1.34,3.98-1.02,7.08-3.28,10.36-5.45l18.16-12.02c13.21-8.74,20.71-3.46,24.01-7.71,2.11-2.71,4.8-4.6,8.24-5.44l6.11-1.49c2.75-.67,5.55.87,8.31,1.55,3.19.79,5.6,2.42,8.34,3.33Z"/>
      <path class="cls-37" d="M233.59,270.98l-24.17.59-27.42-.1c.29-.79.88-1.56.22-1.73l-1.76-.45-17.25-6.97c-9.42-3.81-17.68-9.32-25.12-15.67-1.56.42-2.77-.2-3.71-.55.68-.73,1.27-.39,1.74-.27.41.1.77-.61.49-1.02-.17-.25-.35-.95-.79-1.17-2.89-1.5-2.5-5.31-3.12-5.78-1.37-1.03.22-2.27-1.43-5.2-1.01.37-1.76-.09-1.62-.99,18.63,1.84,36.56,6.37,54.26,13.55,17.62,7.14,33.98,15.84,49.69,25.76Z"/>
      <path class="cls-27" d="M103.35,166.6l-39.89-.03h-21.09s-6.17-.49-6.17-.49c.66-2.3,3.31-.5,4.45-.91.86-.3,1.01-1.74.76-2.43-.65-1.85.39-2.35.75-3.58,1.33-4.53.76-9.82,3.72-13.69,2.52-3.3,7.52-3.94,11.63-3.98l47.56-.46c-1.06,8.51-2.1,16.08-2.33,24.36-.02.58.54.98.6,1.2Z"/>
      <path class="cls-2" d="M191.74,159.6c1.16,2.28,4,4.07,6.12,5.82l-28.32.79-6.98-.23c.12-1.02,2.58-.32,6.58-.99,7.65-1.28,15.13-2.47,22.59-5.39Z"/>
      <g>
        <path class="cls-3" d="M381.22,138.57c-.66.25-1.46.81-2.03,1.82l-96.13-.08h-20.06c.04-.21.06-.52-.08-.74-.19-.3-.8-.48-1.31-.39-2.82.52-5.13-.6-7.63-1.03l-21.38-3.64c-26.91-4.58-52.98-11.63-77.95-22.29-34.77-14.84-66.15-38.18-92.38-65.26C85.68,26.88,115.85,13.69,146.38,6.91c54.67-12.15,117.77-8.82,168.57,14.38,31.87,14.55,62.39,38.47,74.89,71.94,3.26,8.74,5.15,17.5,4.27,26.74-.79,8.28-5.58,15.82-12.89,18.59Z"/>
        <g>
          <path class="cls-13" d="M292.71,53.36c-5.55,2.02-10.91-.73-15.72-4.86-.94-2.98-2.73-4.75-1.4-6.81,2.58-4.01,12.93-.24,17.54,6.81,1.21,1.85.53,3.64-.42,4.87Z"/>
          <path class="cls-11" d="M329.76,86.98c-5.33,2.54-11.87-2.89-14.96-8.9.21-1.56-.56-3.31.49-4.53,3.14-3.66,11.62,1.23,15.09,7.89,1.13,2.17.62,4.15-.62,5.55Z"/>
          <path class="cls-31" d="M129.36,58.64c1.14,6.76-16.84,11.45-19.28,7.01-2.15-3.91,6.77-10.5,16.06-9.8,1.69.13,3.03,1.65,3.22,2.8Z"/>
          <path class="cls-7" d="M248.66,49.12c-5.62,3.32-12.2,3.98-18.45,1.91-.1-.88-1.42-2.15-.74-3.39,3.43-6.19,18.64-7.66,20.3-2.15.41,1.38-.89,2.56-1.11,3.62Z"/>
          <path class="cls-33" d="M180.19,44.41c-.7.11-1.36.03-1.66,1.12-6.14.58-12.52-1.57-16.89-6.03-.04-.93-.97-2.2-.06-3.38,3.39-4.38,12.68-1.27,17.48,3.39,1.86,1.81,1.45,3.15,1.13,4.9Z"/>
          <path class="cls-38" d="M224.16,25.81c-4.98,4.26-12.48,4.24-18.14.61.09-1.65-.73-3.25,1.38-4.7,5.46-3.77,14.18-4.17,16.62.2.71,1.27.11,2.55.13,3.89Z"/>
          <path class="cls-13" d="M219.2,64.99c-3.11,3.55-7.96,5.17-12.56,3.38-1.34-.52-2.29-1.74-3.15-2.73.23-1.82-.04-3.74,2.08-5.18,6.78-4.6,15.23-.91,14.33,2.16l-.7,2.37Z"/>
          <path class="cls-12" d="M260.42,27.56c-4.55,3.75-12.95,2.89-13.2-1.34-.22-3.7,6.15-6.74,11.77-5.39,1.54.37,2.73,1.68,2.99,2.78.37,1.57-.22,2.84-1.56,3.95Z"/>
          <path class="cls-18" d="M172.8,21.09c-1.36,4.86-6.96,9.99-11.16,7.41-2.84-1.74-.02-9.72,7.17-12.19,1.35-.46,2.82.3,3.41,1,.79.95.98,2.33.57,3.78Z"/>
          <path class="cls-23" d="M272.33,91.27c-.46,1.7-2.13,2.79-3.1,3.08-1.2.37-3.11-.2-4.26-1.14-4.41-3.6-4.12-10.4-.85-11.67,3.93-1.52,9.5,4.92,8.2,9.73Z"/>
          <path class="cls-28" d="M151.62,44.04c-.88,5.21-13.64,8.24-14.47,3.43-.66-3.83,6.81-8.32,12.55-6.64,1.33.39,2.09,2.18,1.91,3.21Z"/>
          <path class="cls-8" d="M206.03,26.42c5.66,3.63,13.15,3.65,18.14-.61.11,5.84-10.13,8.53-16.26,5.21-2.38-1.29-1.96-3.01-1.88-4.6Z"/>
          <path class="cls-35" d="M203.48,65.64c.87.99,1.81,2.21,3.15,2.73,4.61,1.79,9.45.16,12.56-3.38.83,4.03-3.42,7.37-7.75,7.75-2.67.23-4.6-.15-6.57-2.04-1.34-1.29-1.68-2.9-1.4-5.05Z"/>
          <path class="cls-6" d="M180.19,44.41c-.9,4.95-8.94,4.53-15.51,1.42-2.61-1.23-3.82-4.15-3.04-6.32,4.37,4.46,10.75,6.6,16.89,6.03.3-1.09.96-1.01,1.66-1.12Z"/>
          <path class="cls-39" d="M329.76,86.98c.51.53.82,1.54.12,2.1-2.99,2.38-8.15,1.29-11.55-2.46-2.31-2.55-3.96-5.35-3.53-8.54,3.09,6.01,9.62,11.44,14.96,8.9Z"/>
          <path class="cls-14" d="M230.21,51.03c6.25,2.08,12.84,1.41,18.45-1.91.05,6.33-17.8,7.42-18.45,1.91Z"/>
          <path class="cls-20" d="M292.71,53.36c.35.42.6,1.59.03,1.86-.34.16-1.07.85-1.53,1.38-5.81.85-12.47-2.53-14.22-8.1,4.81,4.13,10.17,6.88,15.72,4.86Z"/>
        </g>
      </g>
    </g>
    <text class="cls-34" transform="translate(50 378.45)"><tspan x="0" y="0">McSabor</tspan></text>
  </g>
</svg>